<?xml version="1.0" standalone="no"?>
<!DOCTYPE svg PUBLIC "-//W3C//DTD SVG 20010904//EN"
 "http://www.w3.org/TR/2001/REC-SVG-20010904/DTD/svg10.dtd">
<svg version="1.0" xmlns="http://www.w3.org/2000/svg"
 width="1181.000000pt" height="1181.000000pt" viewBox="0 0 1181.000000 1181.000000"
 preserveAspectRatio="xMidYMid meet">
<metadata>
Created by potrace 1.11, written by Peter Selinger 2001-2013
</metadata>
<g transform="translate(0.000000,1181.000000) scale(0.100000,-0.100000)"
fill="#000000" stroke="none">
<path d="M0 5905 l0 -5905 5905 0 5905 0 0 5905 0 5905 -5905 0 -5905 0 0
-5905z m3440 4380 c21 -21 25 -35 25 -80 0 -54 1 -55 365 -629 l365 -576 332
0 332 0 189 233 c104 127 315 389 469 580 272 337 281 349 276 385 -6 43 22
87 65 103 56 22 122 -29 122 -95 0 -39 -40 -78 -88 -85 -39 -6 -48 -15 -368
-411 -180 -223 -387 -480 -460 -571 l-133 -166 52 -54 c37 -38 57 -69 66 -102
l14 -47 291 -2 291 -3 3 -24 c2 -13 -2 -28 -10 -32 -7 -5 -150 -9 -319 -9
-325 0 -329 0 -329 50 -1 34 -32 100 -61 127 -53 48 -90 53 -403 53 -160 0
-306 -4 -325 -10 -76 -21 -130 -81 -145 -159 -12 -65 20 -61 -546 -61 -556 0
-551 0 -535 50 6 20 11 20 511 20 473 0 504 1 504 18 1 34 38 98 85 144 l47
46 -151 239 c-548 867 -574 907 -611 914 -88 18 -107 124 -32 172 34 22 79 15
112 -18z m5605 -1654 c0 -114 -2 -135 -17 -144 -12 -8 -21 -7 -32 2 -13 11
-16 34 -16 112 l0 99 -1466 2 c-1337 3 -1468 4 -1477 19 -6 9 -7 24 -4 33 6
15 124 16 1509 14 l1503 -3 0 -134z m-6257 -2055 c1 -1484 -1 -2022 -9 -2032
-15 -18 -24 -18 -43 2 -14 14 -16 211 -16 2015 0 1399 3 2006 11 2020 6 13 18
19 32 17 l22 -3 3 -2019z m1346 1668 c44 -43 12 -51 -214 -56 -181 -4 -212 -7
-262 -27 -103 -40 -182 -121 -218 -224 -31 -88 -63 -629 -81 -1378 -13 -492
-4 -1107 22 -1635 7 -127 9 -243 5 -258 -7 -28 -36 -35 -54 -13 -22 26 -52
859 -52 1437 0 723 46 1726 85 1856 33 113 126 218 237 269 82 37 122 43 330
44 157 1 189 -1 202 -15z m3941 2 c165 -44 292 -176 323 -336 36 -180 91 -945
95 -1305 2 -176 1 -180 -19 -183 -11 -2 -26 3 -31 10 -6 8 -16 125 -22 278
-20 448 -68 1059 -92 1180 -28 136 -114 233 -254 284 -21 8 -557 12 -1874 16
-1706 5 -1845 6 -1854 22 -8 12 -7 21 2 32 12 15 186 16 1845 16 1497 0 1840
-3 1881 -14z m963 -188 c9 -9 12 -646 12 -2805 0 -2750 0 -2792 -19 -2803 -11
-6 -88 -10 -179 -10 l-159 0 -6 -27 c-12 -59 -110 -143 -165 -143 -11 0 -48
-23 -83 -51 -35 -28 -76 -58 -91 -67 -21 -12 -35 -37 -58 -99 -53 -148 -100
-362 -100 -453 l1 -45 23 55 c70 167 185 360 256 429 82 80 173 101 257 60 82
-40 119 -157 77 -245 -32 -67 -155 -144 -230 -144 -38 0 -40 -25 -10 -116 34
-105 75 -154 130 -154 82 0 166 74 248 221 27 46 50 89 52 94 2 6 7 6 12 2 27
-26 -90 -234 -174 -307 -140 -124 -254 -112 -329 34 -26 50 -53 158 -53 212 0
29 3 32 38 38 57 9 159 63 187 100 50 66 41 141 -20 170 -64 31 -131 11 -200
-59 -69 -69 -174 -280 -240 -482 -18 -58 -45 -83 -87 -83 -45 0 -61 37 -67
153 l-6 100 -28 -41 c-75 -107 -203 -198 -296 -209 -120 -14 -181 59 -161 191
4 25 5 46 4 46 -2 0 -19 -25 -39 -55 -104 -163 -211 -219 -301 -160 -37 24
-74 109 -74 170 l0 50 -27 -35 c-86 -113 -216 -200 -300 -200 -115 0 -157 79
-128 242 8 47 18 94 21 104 4 11 -22 -21 -57 -70 -78 -109 -179 -213 -241
-250 -122 -71 -243 -22 -262 107 l-7 44 -62 -61 c-69 -69 -131 -102 -203 -110
-64 -8 -113 11 -141 53 -30 45 -29 83 7 216 31 114 38 192 19 226 -27 52 -116
43 -168 -17 -35 -39 -102 -169 -157 -301 -20 -48 -47 -109 -60 -135 -67 -132
-142 -77 -152 112 l-4 85 -96 -95 c-58 -57 -125 -111 -166 -135 -68 -39 -69
-40 -113 -135 -145 -312 -279 -440 -406 -386 -98 40 -81 176 34 280 45 41 195
133 271 167 20 9 33 27 48 67 27 70 81 264 76 269 -2 2 -20 -18 -40 -46 -46
-62 -137 -146 -185 -170 -112 -56 -212 -19 -241 90 l-11 39 -54 -58 c-135
-146 -333 -177 -400 -62 -46 80 -12 268 85 465 72 148 138 215 195 201 42 -11
39 -36 -14 -136 -111 -207 -151 -295 -160 -356 -18 -117 13 -174 96 -174 57 0
107 26 164 87 66 70 85 100 103 173 42 165 204 332 384 397 72 26 174 33 210
14 32 -17 45 -47 32 -71 -10 -19 -12 -19 -35 -4 -34 22 -126 15 -187 -15 -149
-71 -301 -310 -285 -447 14 -126 112 -110 258 42 89 93 115 136 134 221 18 77
46 118 89 129 38 9 56 -2 56 -33 0 -46 -47 -226 -99 -379 -26 -79 -45 -144
-41 -144 19 0 132 85 185 138 85 86 126 161 159 288 31 118 104 324 168 468
22 50 42 97 45 103 4 10 -103 13 -516 13 -507 0 -521 -1 -521 -19 0 -31 -48
-80 -90 -92 -66 -20 -120 7 -120 60 0 15 5 32 12 39 9 9 -41 12 -228 12 l-240
0 -45 -87 c-25 -49 -52 -89 -61 -91 -9 -2 -26 7 -38 20 -20 20 -21 31 -17 91
5 59 4 67 -12 67 -10 0 -22 -13 -29 -34 -18 -49 -47 -82 -98 -112 -38 -22 -62
-28 -147 -33 l-102 -6 65 -46 c36 -26 94 -64 130 -85 177 -102 274 -185 322
-275 20 -38 23 -58 23 -154 0 -106 -1 -112 -34 -173 -85 -157 -275 -255 -491
-254 -195 1 -336 80 -397 222 -21 51 -28 167 -13 231 18 74 85 141 164 164 31
9 61 15 66 13 5 -2 -6 -26 -24 -53 -51 -75 -69 -140 -64 -232 4 -91 23 -136
80 -193 115 -115 376 -102 517 26 138 124 115 318 -53 441 -34 25 -117 79
-185 122 -213 131 -275 202 -290 334 -5 41 -12 80 -15 86 -5 7 -57 11 -151 11
-117 0 -146 3 -159 16 -14 14 -16 70 -16 468 0 478 1 493 46 484 18 -3 19 -19
25 -443 3 -242 7 -441 8 -442 0 -2 65 -3 144 -3 l142 0 27 53 c64 121 176 229
296 284 l52 25 -44 56 c-57 73 -85 138 -98 232 -43 291 225 551 516 501 81
-14 173 -52 182 -76 4 -9 0 -24 -9 -32 -15 -15 -21 -14 -79 13 -56 26 -74 29
-163 29 -93 0 -105 -2 -166 -32 -80 -40 -150 -111 -186 -190 -68 -148 -23
-347 101 -447 38 -31 45 -33 97 -29 66 6 157 -17 183 -46 14 -16 23 -17 57
-10 108 25 215 111 264 214 40 84 46 195 15 280 -34 95 -36 112 -9 120 27 9
41 -7 69 -81 88 -238 -48 -515 -290 -590 l-55 -17 3 -66 c2 -37 -3 -94 -11
-129 l-14 -62 861 0 862 0 17 34 c32 69 128 215 173 265 l46 51 -260 0 c-224
0 -263 2 -276 16 -9 8 -16 19 -16 23 0 30 27 31 1025 31 l1001 0 22 -30 c12
-16 22 -43 22 -60 0 -17 -29 -96 -65 -175 -36 -80 -65 -147 -65 -150 0 -2 196
-6 435 -7 374 -3 437 -5 445 -18 12 -19 12 -21 0 -40 -8 -13 -73 -15 -467 -18
l-458 -3 -59 -127 c-84 -182 -172 -405 -197 -497 -26 -98 -38 -307 -19 -330
46 -56 192 38 298 191 12 18 35 73 51 122 34 102 82 203 111 232 16 16 24 18
47 9 53 -20 54 -24 13 -112 -76 -164 -106 -291 -89 -380 11 -60 32 -87 68 -87
72 0 161 115 296 380 42 83 80 150 85 150 19 0 66 -22 77 -36 9 -13 4 -32 -24
-97 -60 -138 -95 -249 -101 -313 -4 -53 -2 -64 17 -83 44 -44 125 -17 225 78
80 76 152 187 167 258 14 68 87 285 136 403 26 64 31 85 21 89 -7 2 -32 23
-56 47 -46 46 -53 77 -19 98 15 9 24 3 58 -36 22 -27 44 -48 49 -48 4 0 42 63
84 140 183 335 304 461 351 370 34 -67 25 -185 -25 -297 l-19 -43 155 0 154 0
0 2763 c0 2136 3 2766 12 2775 7 7 17 12 23 12 6 0 16 -5 23 -12z m-544 -2303
c-1 -192 -6 -440 -13 -550 -24 -404 -62 -843 -83 -945 -25 -132 -118 -246
-248 -309 l-75 -36 -2175 -3 c-1962 -2 -2180 -1 -2230 14 -96 27 -196 97 -240
169 -43 70 16 91 69 25 18 -23 56 -56 84 -75 106 -70 -60 -66 2323 -63 l2149
3 61 28 c76 35 155 113 189 188 20 46 29 91 44 245 47 450 69 831 78 1284 3
190 10 353 15 363 6 11 18 17 31 15 l22 -3 -1 -350z m-5706 -1824 c2 -286 -1
-321 -29 -321 -4 0 -15 7 -23 16 -14 13 -16 54 -16 298 0 297 2 310 45 304 19
-3 20 -11 23 -297z m5334 -262 c181 -39 320 -190 350 -380 44 -291 -224 -556
-516 -511 -89 14 -156 45 -156 72 0 32 25 34 107 10 138 -41 268 -10 373 87
100 92 144 216 121 340 -24 128 -101 232 -216 289 -54 26 -70 29 -160 29 -97
0 -104 -2 -177 -38 -188 -92 -260 -299 -177 -504 17 -43 19 -56 9 -68 -20 -24
-38 -17 -59 23 -94 185 -55 403 97 542 110 102 255 140 404 109z m-2597 -169
l0 -25 -523 -3 c-458 -2 -523 0 -528 13 -4 8 -4 22 0 30 5 13 70 15 528 13
l523 -3 0 -25z m1740 0 l0 -25 -723 -3 c-636 -2 -723 0 -728 13 -4 8 -4 22 0
30 5 13 92 15 728 13 l723 -3 0 -25z m-3432 -104 c71 -29 125 -127 111 -201
-14 -77 -105 -155 -180 -155 -53 0 -131 47 -160 96 -36 61 -31 144 10 199 50
65 146 92 219 61z m4281 -20 c68 -40 105 -126 86 -198 -24 -88 -90 -138 -180
-138 -106 0 -180 76 -180 186 0 52 16 88 57 126 37 35 67 47 127 47 35 1 61
-6 90 -23z m-1819 -156 l0 -25 -908 -3 c-800 -2 -908 0 -913 13 -4 8 -4 22 0
30 5 13 113 15 913 13 l908 -3 0 -25z m970 0 l0 -25 -363 -3 c-316 -2 -363 0
-368 13 -4 8 -4 22 0 30 5 13 52 15 368 13 l363 -3 0 -25z m-2197 -309 c2 -13
-2 -28 -10 -32 -19 -13 -545 -11 -569 1 -19 11 -26 40 -12 53 4 4 137 6 297 5
l291 -3 3 -24z"/>
<path d="M5900 2844 c19 -48 11 -140 -19 -234 l-29 -90 582 0 581 0 50 113
c27 61 69 140 91 175 l42 62 -654 0 -654 0 10 -26z"/>
<path d="M3460 2813 c-136 -67 -261 -247 -268 -382 -1 -36 2 -73 7 -81 16 -24
215 -21 259 3 36 20 72 71 72 102 0 11 7 31 16 43 13 18 25 22 73 22 l59 0 36
109 c20 60 36 116 36 124 0 10 -18 18 -61 26 -33 5 -86 22 -116 36 -30 14 -56
25 -57 25 -1 0 -26 -12 -56 -27z"/>
<path d="M5787 2688 c-35 -44 -107 -153 -107 -163 0 -3 23 -5 51 -5 l50 0 25
57 c28 63 43 153 26 153 -6 0 -26 -19 -45 -42z"/>
<path d="M8628 2703 c-50 -54 -208 -328 -208 -362 0 -6 13 -11 28 -11 23 0 37
12 76 63 62 82 135 230 142 290 8 54 -1 59 -38 20z"/>
<path d="M5581 2343 c-27 -54 -63 -138 -80 -188 l-31 -90 73 76 c61 64 197
265 197 292 0 4 -25 7 -55 7 l-55 0 -49 -97z"/>
<path d="M5773 2367 c-80 -140 -208 -293 -296 -354 -30 -21 -41 -38 -57 -92
-30 -94 -52 -244 -48 -326 l3 -70 42 104 c113 279 232 412 369 413 68 1 99
-19 132 -82 35 -69 30 -128 -24 -287 -51 -151 -52 -191 -8 -220 44 -28 96 -4
190 91 64 64 89 98 119 161 88 187 238 361 367 426 85 43 185 52 217 20 11
-11 21 -30 21 -41 0 -21 -15 -27 -25 -10 -10 17 -107 11 -152 -9 -141 -65
-313 -338 -317 -505 -3 -147 113 -142 254 11 116 125 185 252 316 583 53 135
98 248 101 253 2 4 -258 7 -579 7 l-584 0 -41 -73z"/>
<path d="M8369 2238 c-12 -23 -12 -23 10 -4 23 21 26 26 11 26 -5 0 -15 -10
-21 -22z"/>
<path d="M4666 1237 c-167 -98 -233 -181 -206 -261 33 -102 140 -19 251 197
33 64 56 117 52 117 -4 0 -48 -24 -97 -53z"/>
<path d="M3714 3330 c-60 -24 -85 -121 -44 -172 62 -79 183 -49 205 51 18 83
-78 155 -161 121z"/>
<path d="M7944 3296 c-27 -27 -34 -42 -34 -72 0 -91 80 -145 157 -108 114 56
78 214 -50 214 -31 0 -46 -7 -73 -34z"/>
</g>
</svg>
